<?xml version="1.0" encoding="utf-8"?>
<!-- Generator: Adobe Illustrator 19.0.0, SVG Export Plug-In . SVG Version: 6.00 Build 0)  -->
<svg version="1.1" id="Laag_2" xmlns="http://www.w3.org/2000/svg" xmlns:xlink="http://www.w3.org/1999/xlink" x="0px" y="0px"
	 viewBox="371 -370.4 885.4 885.4" style="enable-background:new 371 -370.4 885.4 885.4;" xml:space="preserve">
<style type="text/css">
	.st0{fill:#EEEEEE;stroke:#333333;stroke-width:20;stroke-linejoin:bevel;}
	.st1{fill:#555555;}
</style>
<circle class="st0" cx="813.7" cy="72.3" r="390.6"/>
<path class="st1" d="M813.7-344.4c230.1,0,416.7,186.6,416.7,416.7S1043.8,489,813.7,489C583.6,489,397,302.4,397,72.3
	S583.6-344.4,813.7-344.4 M813.7-370.4c-59.8,0-117.7,11.7-172.3,34.8c-52.7,22.3-100.1,54.2-140.7,94.9
	c-40.6,40.6-72.6,88-94.9,140.7C382.7-45.4,371,12.6,371,72.3s11.7,117.7,34.8,172.3c22.3,52.7,54.2,100.1,94.9,140.7
	c40.6,40.6,88,72.6,140.7,94.9C696,503.3,753.9,515,813.7,515s117.7-11.7,172.3-34.8c52.7-22.3,100.1-54.2,140.7-94.9
	s72.6-88,94.9-140.7c23.1-54.6,34.8-112.6,34.8-172.3s-11.7-117.7-34.8-172.3c-22.3-52.7-54.2-100.1-94.9-140.7
	c-40.6-40.6-88-72.6-140.7-94.9C931.4-358.7,873.4-370.4,813.7-370.4L813.7-370.4z"/>
</svg>
